# xmcd
#
# Track frame offsets:
#	150
#	12519
#	28324
#	41092
#	55418
#	69695
#	82438
#	95792
#	109001
#	123143
#	136176
#	163176
#
# Disc length: 2461 seconds
#
# Revision: 0
# Processed by: cddbd v1.5PL3 Copyright (c) Steve Scherf et al.
# Submitted via: dBpowerAMP V4.0
#
DISCID=b1099b0c
DTITLE=Jetton and Wheeler - We've Had A Few
DYEAR=1900
DGENRE=Country
TTITLE0=It Might as Well be Me
TTITLE1=My Heart Plays Hell With Angels
TTITLE2=The Whisky Ain't as Risky
TTITLE3=Not Tonight I've Got a Heartache
TTITLE4=Nothing on But The Radio
TTITLE5=Too Close to Home
TTITLE6=I'm Gonna Lie
TTITLE7=Now That The Door is Open
TTITLE8=Something's Gonna Break
TTITLE9=Last Call
TTITLE10=Can't Help Myself
TTITLE11=DATA
EXTD=
EXTT0=
EXTT1=
EXTT2=
EXTT3=
EXTT4=
EXTT5=
EXTT6=
EXTT7=
EXTT8=
EXTT9=
EXTT10=
EXTT11=
PLAYORDER=
